#N canvas 440 393 697 295 10;
#X obj 172 159 dac~;
#X obj 153 87 adc~;
#X obj 234 128 delwrite~ \$0-line 1000;
#X obj 240 170 delread4~ \$0-line 1000;
#X obj 209 65 osc~ 440;
#X obj 336 73 env~;
#X obj 264 102 lop~ 1;
#X connect 1 0 5 0;
#X connect 1 1 5 0;
#X connect 3 0 0 1;
#X connect 4 0 2 0;
#X connect 4 0 0 0;
#X connect 5 0 6 0;
#X connect 6 0 3 0;
