#N canvas 903 276 738 443 10;
#X obj 97 162 delwrite~ \$0-line 1000;
#X obj 291 234 delread4~ \$0-line 1000;
#X obj 291 159 env~;
#X obj 291 210 *~ 1;
#X obj 291 182 lop~ 5;
#X obj 96 53 inlet~;
#X obj 292 314 outlet~;
#X obj 290 133 bp~ 100;
#X obj 290 111 bp~ 100;
#X connect 1 0 6 0;
#X connect 2 0 4 0;
#X connect 3 0 1 0;
#X connect 4 0 3 0;
#X connect 5 0 0 0;
#X connect 5 0 8 0;
#X connect 7 0 2 0;
#X connect 8 0 7 0;
