#N canvas 721 433 695 436 10;
#X obj 96 344 dac~;
#X obj 105 243 *~;
#X obj 317 309 nbx 5 14 -1e+37 1e+37 0 1 empty empty cutoff_freq. 0
-8 0 10 -262144 -1 -1 3003 256;
#X obj 254 309 nbx 5 14 -1e+37 1e+37 0 1 empty empty delay_ms 0 -8
0 10 -262144 -1 -1 500 256;
#X obj 276 372 delay-once~;
#X obj 413 310 hsl 128 15 0 1 0 1 empty empty wet -2 -8 0 10 -262144
-1 -1 12700 1;
#X obj 56 320 amp-detune~;
#X obj 88 186 lop~ 500;
#X obj 74 140 phasor~ 200;
#X obj 239 108 hsl 128 15 10 800 1 1 empty empty empty -2 -8 0 10 -262144
-1 -1 6361 1;
#X obj 249 199 phasor~ 1;
#X obj 261 230 lop~ 100;
#X obj 385 166 +~ 1;
#X obj 244 159 +~;
#X obj 386 142 osc~ 0.01;
#X obj 92 7 hradio 15 1 0 8 empty empty empty 0 -8 0 10 -262144 -1
-1 0;
#X obj 93 57 mtof;
#X obj 92 30 + 60;
#X obj 378 200 *~ 1;
#X obj 97 292 *~ 0.5;
#X connect 1 0 4 0;
#X connect 1 0 19 0;
#X connect 2 0 4 2;
#X connect 3 0 4 1;
#X connect 4 0 19 0;
#X connect 5 0 4 3;
#X connect 6 0 0 0;
#X connect 7 0 1 0;
#X connect 8 0 7 0;
#X connect 9 0 13 0;
#X connect 10 0 11 0;
#X connect 11 0 1 1;
#X connect 12 0 18 0;
#X connect 13 0 8 0;
#X connect 14 0 12 0;
#X connect 15 0 17 0;
#X connect 16 0 9 0;
#X connect 17 0 16 0;
#X connect 18 0 13 1;
#X connect 19 0 6 0;
