#N canvas 798 281 966 723 10;
#X obj 232 454 dac~;
#X obj 181 128 metro 100;
#X obj 181 74 bng 15 250 50 0 empty empty empty 17 7 0 10 -262144 -1
-1;
#X obj 183 257 nbx 5 14 -1e+37 1e+37 0 0 empty empty empty 0 -8 0 10
-262144 -1 -1 11 256;
#X obj 427 370 nbx 5 14 -1e+37 1e+37 0 1 empty empty cutoff_freq. 0
-8 0 10 -262144 -1 -1 87 256;
#X obj 364 370 nbx 5 14 -1e+37 1e+37 0 1 empty empty delay_ms 0 -8
0 10 -262144 -1 -1 1003 256;
#X obj 386 433 delay-once~;
#X obj 523 371 hsl 128 15 0 1 0 1 empty empty wet -2 -8 0 10 -262144
-1 -1 12700 1;
#X obj 253 304 lop~ 1000;
#X obj 291 347 hip~ 10;
#X obj 195 186 random 100;
#X obj 261 228 / 100;
#X obj 240 389 *~ 1;
#X connect 1 0 10 0;
#X connect 2 0 1 0;
#X connect 4 0 6 2;
#X connect 5 0 6 1;
#X connect 6 0 12 0;
#X connect 7 0 6 3;
#X connect 8 0 9 0;
#X connect 9 0 6 0;
#X connect 10 0 1 1;
#X connect 10 0 3 0;
#X connect 10 0 11 0;
#X connect 11 0 8 0;
#X connect 12 0 0 0;
#X connect 12 0 0 1;
