#N canvas 792 307 966 723 10;
#X obj 309 485 dac~;
#X obj 181 128 metro 100;
#X obj 181 74 bng 15 250 50 0 empty empty empty 17 7 0 10 -262144 -1
-1;
#X obj 183 257 nbx 5 14 -1e+37 1e+37 0 0 empty empty empty 0 -8 0 10
-262144 -1 -1 79 256;
#X obj 317 420 *~ 1;
#X obj 260 358 freeverb~;
#X msg 276 331 damping 0.4;
#X obj 276 303 loadbang;
#X obj 261 263 hip~ 1;
#X obj 196 186 random 200;
#X obj 261 228 / 200;
#X connect 1 0 9 0;
#X connect 2 0 1 0;
#X connect 4 0 0 0;
#X connect 4 0 0 1;
#X connect 5 0 4 0;
#X connect 6 0 5 0;
#X connect 7 0 6 0;
#X connect 8 0 5 0;
#X connect 9 0 1 1;
#X connect 9 0 3 0;
#X connect 9 0 10 0;
#X connect 10 0 8 0;
