#N canvas 1295 296 450 300 10;
#X obj 161 93 delread~ \$0-deline 500;
#X obj 245 177 vcf~ 3;
#X obj 245 200 *~ 3;
#X obj 119 67 delwrite~ \$0-deline 3000;
#X obj 75 34 inlet~;
#X obj 179 36 inlet;
#X obj 261 36 inlet;
#X obj 76 268 outlet~;
#X obj 334 39 inlet;
#X obj 334 71 f;
#X obj 280 125 loadbang;
#X obj 245 226 *~ 1;
#X obj 280 149 f 3000;
#X connect 0 0 1 0;
#X connect 1 0 2 0;
#X connect 2 0 11 0;
#X connect 4 0 3 0;
#X connect 4 0 7 0;
#X connect 5 0 0 0;
#X connect 6 0 1 1;
#X connect 8 0 9 0;
#X connect 9 0 11 1;
#X connect 10 0 12 0;
#X connect 11 0 7 0;
#X connect 12 0 1 1;
