#N canvas 193 91 1063 687 10;
#X obj 167 109 context :Z 7 :a ' :o = :s | ' :d 8 :e 1 :f 1 :i -1 -2
-1 -2 0 :n ' ts time ' :x 1 2 3 4 :ID 2;
#X obj 244 109 context :Z 7 :a ' :o = :s | ' :d 8 :e 1 :f 1 :i -2 -2
-1 -3 0 :n ' ts time ' :x 1 2 3 4 :ID 3;
#X obj 208 43 context :M 1 :d 8 :h 1 :i 2 2 2 3 1 :n ' time ' :p -1
:P 1 :x 1 2 3 4 5 :ID 1;
#X obj 177 194 context :X 10 :Y 7 :Z 13 :M 1 :a ' *.* ' :b ' *.* '
:e 1 :f 1 :h 0 :i 5 6 7 8 0 0 0 0 0 0 :n ' ts- ' :p -1 :z 0 :P -1 :x
1 2 3 4 :ID 4 :A 1;
#X obj 129 301 context :M 1 :e 1 :f 1 :i 10 11 12 0 0 :z 0 :x 1 2 3
:ID 5;
#X obj 199 301 context :M 1 :e 1 :f 1 :i 9 16 17 0 0 :z 0 :x 1 2 3
:ID 6;
#X obj 269 301 context :M 1 :d 1.125 :i 19 21 22 0 0 :z 0 :x 1 2 3
:ID 7;
#X obj 341 301 context :M 1 :e 1 :f 1 :i 23 24 25 0 0 :z 0 :x 1 2 3
:ID 8;
#X obj 281 459 context :X 9 :Z 23 :a ' r (¬ - 1 *20) | ' :c 3 :d 1
:h 1 :j 14 15 0 :n ' snare ' :p -1 :R 63.36 :x 3 4 7 :y 1 2 :ID 9;
#N canvas 401 162 450 300 snare 0;
#X obj 191 248 outlet~;
#X obj 247 125 noise~;
#X obj 218 210 bp~ 1200 3;
#X obj 229 188 bp~ 600 2;
#X obj 231 163 bp~ 12000 6;
#X floatatom 321 131 5 0 0 0 - - -, f 5;
#X obj 315 159 * 2000;
#X floatatom 315 181 5 0 0 0 - - -, f 5;
#X connect 1 0 4 0;
#X connect 1 0 3 0;
#X connect 1 0 2 0;
#X connect 2 0 0 0;
#X connect 3 0 0 0;
#X connect 4 0 0 0;
#X connect 5 0 6 0;
#X connect 6 0 4 1;
#X connect 6 0 7 0;
#X restore 1333 505 pd snare;
#X obj 38 460 context :H 60 :X 17 :Y 6 :Z 31 :a ' u (~ * 10) & d (¬
- 1 *20) | ' :c 1 :d 2 :e 1 :f 1 :i 0 0 0 0 0 0 0 0 0 0 0 0 0 0 0 0
11 :n ' bd ' :x 1 5 9 11 14 :ID 10 6 obj -35 -93 list split 1 11 obj
-1 -65 ols \$1 inlet outlet-x outlet-y mouse settings cutsom 9 obj
361 -103 presets \$1 :x :y :d :m 10 obj 0 27 content :x2 0.002 :y1
0.000933333 :y2 0.0019 4 obj 0 -20 mover 5 connect 0 0 1 0 5 connect
0 1 2 1 5 connect 0 2 2 2 5 connect 0 3 2 3 5 connect 0 4 2 4 5 connect
1 1 2 0;
#X obj 1530 381 s~ pitch;
#X obj 1530 191 r~ pitch;
#X obj 38 547 context :H 62 :X 17 :Y 6 :Z 22 :a ' u (~ * 10) & d (¬
- 1 *20) | ' :c 1 :d 2 :e 1 :f 1 :i 0 0 0 0 0 0 0 0 0 0 0 0 0 0 0 0
10 :n ' bd ' :x 1 3 5 9 11 13 14 :ID 11 6 obj -35 -93 list split 1
11 obj -1 -65 ols \$1 inlet outlet-x outlet-y mouse settings cutsom
9 obj 361 -103 presets \$1 :x :y :d :m 10 obj 0 27 content :x2 0.002
:y1 0.000933333 :y2 0.0019 4 obj 0 -20 mover 5 connect 0 0 1 0 5 connect
0 1 2 1 5 connect 0 2 2 2 5 connect 0 3 2 3 5 connect 0 4 2 4 5 connect
1 1 2 0;
#X obj 1529 217 osc~;
#X obj 1141 528 f-env snare 100 82 5.24807 8 131 0 1 1 0 30;
#X obj 37 634 context :H 63 :X 17 :Y 6 :Z 22 :a ' u (~ * 10) & d (¬
- 1 *20) | ' :c 1 :d 2 :e 1 :f 1 :i 0 0 0 0 0 0 0 0 0 0 0 0 0 0 0 0
11 :n ' bd ' :x 1 2 3 4 5 7 11 14 :ID 12 6 obj -35 -93 list split 1
11 obj -1 -65 ols \$1 inlet outlet-x outlet-y mouse settings cutsom
9 obj 361 -103 presets \$1 :x :y :d :m 10 obj 0 27 content :x2 0.002
:y1 0.000933333 :y2 0.0019 4 obj 0 -20 mover 5 connect 0 0 1 0 5 connect
0 1 2 1 5 connect 0 2 2 2 5 connect 0 3 2 3 5 connect 0 4 2 4 5 connect
1 1 2 0;
#X obj 396 523 context :X 9 :Z 23 :a ' r (¬ - 1 *20) | ' :c 3 :d 1
:j 2 0 0 :n ' snare ' :p -1 :P -1 :x 3 4 5 7 :ID 14;
#X obj 281 523 context :X 9 :Z 23 :a ' r (¬ - 1 *20) | ' :c 3 :d 1
:j 2 0 0 :n ' snare ' :p -1 :P -1 :x 3 7 :ID 15;
#X obj 396 458 context :X 9 :Z 23 :a ' r (¬ - 1 *20) | ' :c 3 :d 1
:h 1 :j 14 15 0 :n ' snare ' :p -1 :P 1 :x 2 3 5 7 :y 1 2 :ID 16;
#X obj 283 582 context :X 17 :Z 23 :a ' r (¬ - 1 *20) | ' :c 3 :d
2 :j 2 0 0 :n ' snare ' :p -1 :P -1 :x 1 2 3 4 5 7 10 13 :ID 17;
#X msg 1339 -2 \; c-all stop;
#X obj 558 596 context :H 38 :X 9 :Y 5 :Z 12 :a ' | ' :c 6 :d 0.32
:e 1 :f 1 :i 0 0 0 0 0 0 0 0 20 :n ' congas- ' :x 1 :ID 18 6 obj -35
-93 list split 1 11 obj -1 -65 ols \$1 inlet outlet-x outlet-y mouse
settings cutsom 9 obj 361 -103 presets \$1 :x :y :d :m 15 obj 0 19
content :l waves/open-conga.wav :x2 0.00032 :y1 0.000128 :y2 0.00032
:y -1 2 5 obj 47 83 throw~ samples 5 connect 0 1 2 1 5 connect 0 2
2 2 5 connect 0 3 2 3 5 connect 0 4 2 4 5 connect 1 1 2 0 5 connect
4 0 5 0;
#X obj 565 414 context :M 1 :a ' \\\; \\\; \\\; \\\; ' :b ' (? 4 +
2) | ' :c 19 :d 0.5 :h 1 :i 19 19 0 21 18 :n ' level ' :p -1 :D 8 :E
1 :R 63.36 :x 1 2 3 4 5 :ID 19;
#X obj 675 595 context :H 36 :X 9 :Y 5 :Z 12 :a ' | ' :c 6 :d 0.25
:e 1 :f 1 :i 0 0 0 0 0 0 0 0 18 :n ' congas- ' :ID 20 6 obj -35 -93
list split 1 11 obj -1 -65 ols \$1 inlet outlet-x outlet-y mouse settings
cutsom 9 obj 361 -103 presets \$1 :x :y :d :m 15 obj 0 19 content :l
waves/lo-conga.wav :x2 0.00025 :y1 0.0001 :y2 0.00025 :y -1 2 5 obj
47 83 throw~ samples 5 connect 0 1 2 1 5 connect 0 2 2 2 5 connect
0 3 2 3 5 connect 0 4 2 4 5 connect 1 1 2 0 5 connect 4 0 5 0;
#X obj 636 415 context :M 1 :a ' \\\; \\\; \\\; \\\; ' :b ' (? 4 +
2) | ' :c 19 :d 0.5 :h 1 :i 19 0 21 21 20 :n ' level ' :p -1 :D 8 :E
1 :R 63.36 :x 1 2 3 4 5 :ID 21;
#X obj 560 506 context :X 17 :Z 18 :a ' \\\; \\\; \\\; \\\; \\\; \\\;
\\\; \\\; \\\; \\\; \\\; \\\; \\\; \\\; \\\; \\\; \\\; \\\; ' :c 19
:d 2 :n ' congas ' :x 1 2 3 4 5 7 :ID 22;
#X obj 563 31 context :X 9 :Z 15 :a ' # = & d 10 | ' :c 16 :d 2 :e
1 :f 1 :h 1 :i -9 -10 -9 -12 0 -7 0 0 24 :j 24 25 0 :n ' ks ' :p -1
:P 1 :x 1 2 4 6 :ID 23;
#X obj 563 92 context :X 17 :Z 18 :a ' # = & d -10 | ' :c 16 :d 2 :e
1 :f 1 :i -9 -10 -16 -11 -11 0 -10 0 -12 0 -9 -11 0 -10 0 0 23 :n '
ks ' :F 85 :x 1 2 5 7 9 11 12 14 :ID 24;
#X obj 563 159 context :X 17 :Z 18 :a ' # = & d -10 | ' :c 16 :d 2
:e 1 :f 1 :i -13 -14 -13 -11 -11 0 -10 0 -11 0 -10 -11 0 -7 0 0 23
:n ' ks ' :F 85 :x 1 2 3 5 7 9 11 12 14 :ID 25;
#X obj 1390 464 f-env bass 1.65959 81 22.9087 6 382 0 3 1 1 77;
#X obj 1390 416 receive bass-;
#X obj 1390 439 t b f;
#N canvas 65 81 450 300 bass 0;
#X obj 238 53 inlet;
#X obj 244 205 outlet~;
#X floatatom 153 101 5 0 0 0 - - -, f 5;
#X obj 238 75 * 1;
#X obj 228 154 osc~;
#X obj 270 145 * 1.5;
#X obj 270 167 osc~;
#X obj 312 143 * 2;
#X obj 312 165 osc~;
#X connect 0 0 3 0;
#X connect 2 0 3 1;
#X connect 3 0 4 0;
#X connect 3 0 5 0;
#X connect 3 0 7 0;
#X connect 4 0 1 0;
#X connect 5 0 6 0;
#X connect 6 0 1 0;
#X connect 7 0 8 0;
#X connect 8 0 1 0;
#X coords 0 -1 1 1 85 15 1 100 100;
#X restore 1508 437 pd bass;
#X obj 1496 678 dac~;
#X obj 1127 244 2f-env bd pitch 20.893 57 26.3027 5 356 0 1 1 0 38
3.16228 8 15.1356 72 3 123 33 510;
#X text 311 77 TIMING: THESE THREE CONTEXTS DEFINE A REPEATING PATTERN
WHICH FUNCTIONS AS A MUSICAL STRUCTURE, f 21;
#X text 310 226 CONTROL: THESE CONTEXT RELAYS THAT PATTERN TOWARDS
SPECIFIED CONTEXT INSTRUMENTS, f 29;
#X text 123 360 BASS DRUM;
#X text 210 361 SNARE;
#X text 275 363 CONGOS;
#X text 350 363 SYNTH;
#X text 60 410 THESE CONTEXTS HOLD THE BASS DRUM PATTERNS. THE ARRAYS
CONTROL THE SUSTAIN LEVEL., f 28;
#X text 288 406 THESE CONTEXTS HOLD THE SNARE PATTERN. THE DECAY IS
DEFINED BY THE SPACE BETWEEN ONE BEAT AND THE NEXT., f 36;
#X text 557 574 THESE CONTEXTS HOLD THE CONGA SAMPLES;
#X text 559 378 THESE CONTEXTS DEFINE A RANDOM CONGA PATTERN, f 28
;
#X text 560 487 THIS CONTEXT HOLDS A CONGA FILL;
#X text 679 46 THESE CONTEXTS HOLD THE MELODY. NOTES ARE REPRESENTED
BY THE NUMBERS IN THE TOGGLES., f 44;
#X obj 1128 380 throw~ e-out;
#X obj 1142 664 throw~ e-out;
#X obj 1389 649 throw~ e-out;
#X obj 1342 193 throw~ e-out;
#X obj 1496 653 catch~ e-out;
#X obj 1576 654 catch~ samples;
#X obj 221 12 bng 20 250 50 0 empty empty START 24 10 0 10 -262144
-1 -1;
#N canvas 65 89 450 300 stop 0;
#X obj 100 100 bng 20 250 50 0 empty empty STOP 24 10 0 10 -262144
-1 -1;
#X msg 100 140 \; c-all stop;
#X connect 0 0 1 0;
#X coords 0 -1 1 1 20 20 2 100 100;
#X restore 281 11 pd stop;
#X obj 1341 55 cz-synth ks 55 1.5 1 4 56 82 0 48 1;
#X obj 1339 33 scaler blues major C 2;
#X connect 9 0 15 2;
#X connect 12 0 14 0;
#X connect 14 0 35 2;
#X connect 15 0 49 0;
#X connect 30 0 50 0;
#X connect 31 0 32 0;
#X connect 32 0 30 0;
#X connect 32 1 33 0;
#X connect 33 0 30 2;
#X connect 35 0 48 0;
#X connect 35 1 11 0;
#X connect 52 0 34 0;
#X connect 52 0 34 1;
#X connect 53 0 34 1;
#X connect 53 0 34 0;
#X connect 54 0 2 1;
#X connect 56 0 51 0;
