#N canvas 620 158 956 698 10;
#X obj 190 186 svf~, f 26;
#X obj 319 123 hsl 128 15 100 12700 1 1 empty empty empty -2 -8 0 10
-262144 -1 -1 12700 1;
#X obj 466 123 hsl 128 15 0 1 0 1 empty empty empty -2 -8 0 10 -262144
-1 -1 3400 1;
#X obj 388 284 tristans-hacks/reverb;
#X obj 128 158 new-primatives/saw~ 20;
#X obj 128 73 receive instrument-a;
#X obj 128 110 / 1;
#X obj 308 64 +~ 1;
#X obj 307 37 osc~ 0.1;
#X obj 307 91 *~ 700;
#X obj 343 467 throw~ mix-1-l;
#X obj 453 467 throw~ mix-1-r;
#X connect 0 1 3 0;
#X connect 0 1 3 1;
#X connect 0 1 10 0;
#X connect 0 1 11 0;
#X connect 1 0 0 1;
#X connect 2 0 0 2;
#X connect 3 0 10 0;
#X connect 3 1 11 0;
#X connect 4 0 0 0;
#X connect 5 0 6 0;
#X connect 6 0 4 0;
#X connect 7 0 9 0;
#X connect 8 0 7 0;
#X connect 9 0 0 1;
