#N canvas 181 296 702 300 10;
#X obj 73 53 receive cz-;
#X obj 73 77 route float;
#X obj 73 121 netsend;
#X msg 42 29 connect 10.255.249.213 3000;
#X obj 153 77 route float;
#X obj 153 53 receive ks-;
#X obj 233 77 route float;
#X obj 233 53 receive bass-;
#X msg 73 99 send a \$1;
#X msg 153 99 send b \$1;
#X msg 233 99 send c \$1;
#X connect 0 0 1 0;
#X connect 1 0 8 0;
#X connect 3 0 2 0;
#X connect 4 0 9 0;
#X connect 5 0 4 0;
#X connect 6 0 10 0;
#X connect 7 0 6 0;
#X connect 8 0 2 0;
#X connect 9 0 2 0;
#X connect 10 0 2 0;
