#N canvas 234 221 1213 561 10;
#X obj 189 46 catch~ mix-1-l;
#X obj 461 489 dac~;
#X obj 410 367 *~ 1;
#X obj 189 258 *~ 1;
#X obj 214 123 vsl 15 128 0 1 0 1 empty empty empty 0 -9 0 10 -262144
-1 -1 7600 1;
#X text 189 17 1;
#X obj 299 258 *~ 1;
#X obj 324 123 vsl 15 128 0 1 0 1 empty empty empty 0 -9 0 10 -262144
-1 -1 0 1;
#X obj 399 258 *~ 1;
#X obj 424 123 vsl 15 128 0 1 0 1 empty empty empty 0 -9 0 10 -262144
-1 -1 0 1;
#X obj 499 258 *~ 1;
#X obj 524 123 vsl 15 128 0 1 0 1 empty empty empty 0 -9 0 10 -262144
-1 -1 0 1;
#X text 299 17 2;
#X obj 299 46 catch~ mix-2-l;
#X text 399 17 3;
#X obj 399 46 catch~ mix-3-l;
#X text 499 17 4;
#X obj 499 46 catch~ mix-4-l;
#X obj 582 381 vsl 15 128 0 1 0 1 empty empty empty 0 -9 0 10 -262144
-1 -1 5000 1;
#X obj 593 258 *~ 1;
#X obj 618 123 vsl 15 128 0 1 0 1 empty empty empty 0 -9 0 10 -262144
-1 -1 0 1;
#X text 593 17 4;
#X obj 593 46 catch~ mix-5-l;
#X obj 687 258 *~ 1;
#X obj 712 123 vsl 15 128 0 1 0 1 empty empty empty 0 -9 0 10 -262144
-1 -1 0 1;
#X obj 687 46 catch~ mix-6-l;
#X connect 0 0 3 0;
#X connect 2 0 1 0;
#X connect 2 0 1 1;
#X connect 3 0 2 0;
#X connect 4 0 3 1;
#X connect 6 0 2 0;
#X connect 7 0 6 1;
#X connect 8 0 2 0;
#X connect 9 0 8 1;
#X connect 10 0 2 0;
#X connect 11 0 10 1;
#X connect 13 0 6 0;
#X connect 15 0 8 0;
#X connect 17 0 10 0;
#X connect 18 0 2 1;
#X connect 19 0 2 0;
#X connect 20 0 19 1;
#X connect 22 0 19 0;
#X connect 23 0 2 0;
#X connect 24 0 23 1;
#X connect 25 0 23 0;
