#N canvas 362 97 819 964 10;
#X obj 221 238 osc~ 440;
#X obj 221 45 netreceive 6000;
#X obj 291 238 osc~ 440;
#X obj 361 238 osc~ 440;
#X obj 305 294 *~ 1;
#X obj 291 132 * 1.5;
#X obj 361 132 + 1.35;
#X obj 151 238 osc~ 440;
#X obj 151 150 / 3;
#X obj 290 768 dac~;
#X obj 291 365 *~ 1;
#X obj 301 327 clip~ -0.5 0.5;
#X obj 373 497 delread~ \$0-deline 500;
#X obj 457 581 vcf~ 3;
#X obj 457 604 *~ 3;
#X obj 307 470 delwrite~ \$0-deline 3000;
#X obj 546 475 f;
#X obj 492 529 loadbang;
#X obj 457 630 *~ 1;
#X obj 492 553 f 3000;
#X obj 292 399 *~ 1;
#X obj 412 444 * 1;
#X obj 473 440 * 1;
#X obj 546 443 * 1;
#X obj 384 386 nbx 5 14 -1e+37 1e+37 0 1 empty empty empty 0 -8 0 10
-4032 -1 -1 562 256;
#X obj 464 386 nbx 5 14 -1e+37 1e+37 0 1 empty empty empty 0 -8 0 10
-4032 -1 -1 824 256;
#X obj 549 386 nbx 5 14 -1e+37 1e+37 0 1 empty empty empty 0 -8 0 10
-4032 -1 -1 0.5 256;
#X obj 290 672 *~ 1;
#X obj 322 620 clip~ -0.99 0.99;
#X obj 292 440 hip~ 100;
#X obj 321 595 *~ 1;
#X obj 270 546 lop~ 1000;
#X obj 221 91 * 3;
#X obj 370 79 send notes;
#X obj 290 729 *~ 1;
#N canvas 983 314 450 615 am 1;
#X obj 213 100 osc~ 10000;
#X obj 69 104 inlet~;
#X obj 166 138 *~;
#X obj 164 430 outlet~;
#X obj 166 243 clip~ 0 1;
#X obj 243 269 *~ -1;
#X obj 242 243 clip~ -1 0;
#X obj 74 394 throw~ wtf;
#X obj 165 297 lop~ 1000;
#X obj 245 153 hsl 128 15 1000 22050 0 1 empty empty empty -2 -8 0
10 -262144 -1 -1 8100 1;
#X obj 163 386 *~ 10;
#X obj 164 338 hip~ 10;
#X obj 129 61 noise~;
#X obj 145 91 *~ 0.001;
#X obj 166 184 bp~ 10000 100;
#X connect 0 0 2 1;
#X connect 1 0 2 0;
#X connect 2 0 14 0;
#X connect 4 0 8 0;
#X connect 5 0 8 0;
#X connect 6 0 5 0;
#X connect 8 0 11 0;
#X connect 9 0 14 1;
#X connect 10 0 3 0;
#X connect 11 0 10 0;
#X connect 12 0 13 0;
#X connect 13 0 2 0;
#X connect 14 0 4 0;
#X connect 14 0 6 0;
#X restore 448 716 pd am;
#X obj 441 54 nbx 5 14 -1e+37 1e+37 0 0 empty empty empty 0 -8 0 10
-262144 -1 -1 87.3071 256;
#X obj 525 712 source-amen~;
#X obj 511 682 bng 15 250 50 0 empty empty empty 17 7 0 10 -262144
-1 -1;
#X obj 290 642 *~ 0.5;
#X obj 648 457 phasor~;
#X obj 661 404 lop~ 10;
#X connect 0 0 4 0;
#X connect 1 0 32 0;
#X connect 1 0 33 0;
#X connect 1 0 36 0;
#X connect 2 0 4 0;
#X connect 3 0 4 0;
#X connect 4 0 11 0;
#X connect 5 0 2 0;
#X connect 6 0 3 0;
#X connect 7 0 10 0;
#X connect 8 0 7 0;
#X connect 10 0 20 0;
#X connect 11 0 10 0;
#X connect 12 0 13 0;
#X connect 13 0 14 0;
#X connect 13 0 30 0;
#X connect 14 0 18 0;
#X connect 16 0 18 1;
#X connect 17 0 19 0;
#X connect 18 0 27 0;
#X connect 19 0 13 1;
#X connect 20 0 29 0;
#X connect 21 0 12 0;
#X connect 22 0 13 1;
#X connect 23 0 16 0;
#X connect 24 0 21 0;
#X connect 25 0 22 0;
#X connect 26 0 23 0;
#X connect 28 0 31 0;
#X connect 29 0 15 0;
#X connect 30 0 28 0;
#X connect 31 0 29 0;
#X connect 32 0 5 0;
#X connect 32 0 6 0;
#X connect 32 0 0 0;
#X connect 32 0 8 0;
#X connect 32 0 41 0;
#X connect 34 0 9 0;
#X connect 35 0 34 0;
#X connect 38 0 37 0;
#X connect 39 0 27 0;
#X connect 40 0 35 0;
#X connect 41 0 40 0;
