#N canvas 199 153 1301 687 12;
#X obj 134 556 dac~;
#X obj 249 187 context :Z 8 :a ' # = & x- (?7) & y- (?7) & r (?100)
2000 | # = | ' :c 2 :d 2 :e 2 :f 1 :h 1 :i 0 0 -6 -2 8 :j 2 16 0 :n
' cz ' :p -1 :R 63.36 :x 1 3 4 :ID 1;
#X obj -103 -27 cz-synth cz 55 3 4 2 77 87 0 59 1;
#X obj 395 260 context :X 9 :Z 12 :a ' # = | ' :c 13 :d 1 :e 1 :f 1
:h 1 :i 0 -14 -13 0 -11 0 -10 0 0 :j 3 4 5 :n ' ks ' :p -1 :P 1 :x
2 3 5 7 :y 1 2 3 :ID 2;
#X obj -118 169 ks2 ks 36 50.1187 51 98 0 77 1 16.5577 5 1.65959 3
27 1.5 0 88 4 91;
#X obj 395 325 context :X 9 :Z 12 :a ' # = | ' :c 13 :d 1 :e 1 :f 1
:i -11 -6 -13 -14 -4 -14 -3 0 1 :n ' ks ' :x 2 3 4 6 :ID 3;
#X obj 393 393 context :X 9 :Z 12 :a ' # = | ' :c 13 :d 1 :e 1 :f 1
:i -11 0 -13 -11 15 -11 0 0 1 :n ' ks ' :x 1 4 6 :ID 4;
#X obj 393 464 context :X 9 :Z 12 :a ' # = | ' :c 13 :d 1 :e 1 :f 1
:i -11 0 -13 -11 15 -7 0 0 1 :j 0 13 0 :n ' ks ' :x 1 3 4 6 :ID 5;
#X msg 1049 -34 context :X 9 :Z 12 :a ' # = | ' :d 2 :e 1 :i -4 0 -6
-4 0 -4 0 0 0 :n ' ks ' :x 1 3 4 6;
#X obj 611 -26 context :X 10 :Z 12 :M 1 :a ' # 13 | ' :b ' # 13 | '
:e 7 :f 5 :h 1 :i 8 0 54 0 17 0 24 38 2 0 :n ' ks ' :p -1 :z 0 :R 63.36
:x 1 2 3 5 7 :ID 6;
#X obj 242 301 context :X 9 :a ' # = | ' :c 2 :d 1 :e 1 :f 1 :i 0 0
1 0 -2 0 -6 0 0 :n ' cz ' :x 5 7 :ID 7;
#X obj 273 244 context :c 2 :d 1 :e 1 :f 1 :h 1 :j 7 9 52 :p -1 :R
63.36 :y 1 2 3 :ID 8;
#X obj 240 361 context :X 9 :a ' # = | # = | ' :c 2 :d 1 :e 1 :f 1
:i 0 0 1 0 0 -2 -6 0 0 :n ' cz ' :x 6 7 :ID 9;
#X obj 665 364 context :Y 6 :a ' # = | # = | ' :c 4 :d 1.5 :e 1 :f
1 :h 1 :i 0 -6 -2 -4 45 :j 12 60 0 0 0 :n ' bass ' :p -1 :D 2 :E 1
:R 63.36 :x 1 2 3 :y 1 2 3 :ID 10;
#X obj 688 307 context :X 7 :M 1 :a ' | ' :b ' -- bass- o (?100) |
' :c 4 :e 3 :f 4 :h 1 :i 0 10 12 17 13 14 0 :p -1 :z 0 :R 63.36 :x
1 2 3 5 6 :ID 11;
#X obj 730 364 context :Y 6 :a ' # = | # = | ' :c 4 :d 1.5 :e 1 :f
1 :h 1 :i 0 0 -2 -6 20 :j 13 14 0 0 0 :n ' bass ' :p -1 :D 2 :E 1 :R
63.36 :x 1 3 4 :y 1 2 3 :ID 12;
#X obj 664 453 context :Y 6 :a ' # = | # = | ' :b ' | # = | ' :c 4
:d 1.5 :e 1 :f 1 :h 1 :i 0 -3 -2 0 0 :j 14 10 0 0 0 :n ' bass ' :p
-1 :D 2 :E 1 :R 63.36 :x 1 2 3 :y 1 2 3 :ID 13;
#X obj 732 453 context :Y 6 :a ' # = | # = | ' :b ' # 1 | ' :c 4 :d
1.5 :e 1 :f 6 :h 1 :i -6 -2 -6 0 0 :j 10 41 0 0 0 :n ' bass ' :p -1
:D 2 :E 1 :R 63.36 :x 1 2 3 :y 1 2 3 :ID 14;
#X obj 907 526 context :M 1 :e 1 :f 1 :h 1 :i 13 14 0 0 0 :p -1 :z
0 :P 1 :x 1 2 3 :y 2 :ID 15;
#X obj 396 198 context :X 9 :Z 12 :a ' # = | ' :c 13 :d 1 :e 1 :f 1
:h 1 :i -4 -14 0 -13 -11 0 -11 0 17 :j 3 4 5 :n ' ks ' :p -1 :P 1 :x
2 4 5 7 :y 1 2 3 :ID 16;
#X obj 753 -48 scaler locrian c 3;
#X obj -147 339 throw~ feed;
#X obj 46 619 throw~ feed;
#X obj 139 478 catch~ out;
#X obj 708 533 catch~ feed;
#X obj -122 135 throw~ feed;
#X obj 529 565 stutter feedback 91 87 66.0693 6.60693 0;
#X obj 88 275 bass~ bass 34 35 33 52 2 100;
#X obj 920 616 context :X 17 :Z 12 :a ' # 0 | ' :d 2 :e 1 :f 1 :h 1
:j 17 0 0 :n ' bass ' :p -1 :R 63.36 :x 1 2 4 6 8 12 13 15 :y 1 2 3
:ID 17;
#X msg 753 -21 \; c-all stop;
#X obj 374 597 context :a ' # = | ' :d 2 :e 1 :f 1 :i 0 0 -4 -9 18
:n ' cz ' :E 1 :x 3 4 :ID 18;
#X obj 873 360 context :H 45 :X 7 :Y 5 :a ' -- c19 start | ' :d 1 :e
1 :f 1 :h 1 :i 0 0 0 0 0 0 -19 :p -1 :z 0 :R 63.36 :x 1 2 3 4 5 6 7
:ID 30 6 obj -35 -93 list split 1 11 obj -1 -65 ols \$1 inlet outlet-x
outlet-y mouse settings cutsom 10 obj 361 -103 presets \$1 :x :y :d
:a :b 117 obj 0 4 content :H 11 :x1 0 :x2 0.000972222 :y1 8.33334e-05
:y2 0.000708333 :y 1 0 0.177804 0.177804 0.311136 0.277803 0.277803
0.273636 0.26947 0.265303 0.261136 0.25697 0.252803 0.248637 0.24447
0.24447 0.24447 0.24447 0.24447 0.24447 0.250025 0.255581 0.261136
0.266692 0.272247 0.277803 0.311136 0.311136 0.311136 0.311136 0.311136
0.311136 0.311136 0.311136 0.311136 0.311136 0.311136 0.311136 0.311136
0.311136 0.311136 0.344468 0.344468 0.352802 0.361135 0.369468 0.377801
0.388912 0.400023 0.411134 0.411134 0.411134 0.422245 0.433356 0.444467
0.444467 0.444467 0.444467 0.444467 0.4778 0.4778 0.511133 0.515894
0.520656 0.525418 0.53018 0.534942 0.539704 0.544465 0.577798 0.577798
0.577798 0.611131 0.611131 0.611131 0.627797 0.644464 0.644464 0.644464
0.644464 0.644464 0.644464 0.644464 0.644464 0.644464 0.677797 0.711129
0.711129 0.711129 0.711129 0.711129 0.711129 0.727796 0.744462 0.761129
0.777795 0.777795 0.777795 0.844461 0.777795 0.777795 0.811128 4 obj
0 -20 mover 5 obj 9 77 send~ snap 5 connect 0 0 1 0 5 connect 0 1 2
1 5 connect 0 2 2 2 5 connect 0 3 2 3 5 connect 0 4 2 4 5 connect 1
1 2 0 5 connect 4 0 6 0;
#X obj 4 425 stutter feedback2 54 35 1 23.9883 1;
#X obj 625 564 stutter feedback3 95 71 13.1826 1.38038 0;
#X obj 807 285 context :H 36 :X 9 :Y 5 :Z 12 :a ' | ' :c 6 :d 0.29
:e 1 :f 1 :i 0 0 0 0 0 0 0 0 20 :n ' congas- ' :ID 22 6 obj -35 -93
list split 1 11 obj -1 -65 ols \$1 inlet outlet-x outlet-y mouse settings
cutsom 9 obj 361 -103 presets \$1 :x :y :d :m 15 obj 0 19 content :l
waves/lo-bongo.wav :x2 0.00029 :y1 0.000116 :y2 0.00029 :y -1 2 5 obj
47 83 throw~ samples 5 connect 0 0 1 0 5 connect 0 1 2 1 5 connect
0 2 2 2 5 connect 0 3 2 3 5 connect 0 4 2 4 5 connect 1 1 2 0 5 connect
4 0 5 0;
#X obj 924 284 context :H 36 :X 9 :Y 5 :Z 12 :a ' | ' :c 6 :d 0.3 :e
1 :f 1 :i 0 0 0 0 0 0 0 0 18 :n ' congas- ' :ID 23 6 obj -35 -93 list
split 1 11 obj -1 -65 ols \$1 inlet outlet-x outlet-y mouse settings
cutsom 9 obj 361 -103 presets \$1 :x :y :d :m 15 obj 0 19 content :l
waves/lo-conga.wav :x2 0.0003 :y1 0.00012 :y2 0.0003 :y -1 2 5 obj
47 83 throw~ samples 5 connect 0 0 1 0 5 connect 0 1 2 1 5 connect
0 2 2 2 5 connect 0 3 2 3 5 connect 0 4 2 4 5 connect 1 1 2 0 5 connect
4 0 5 0;
#X obj 874 220 context :d 0.46 :e 1 :f 1 :i 0 23 22 0 21 :x 2 3 :ID
21;
#X obj 120 430 catch~ samples;
#X obj 530 242 context :H 38 :X 9 :Y 5 :Z 12 :a ' | ' :c 6 :d 1.85
:e 1 :f 1 :i 0 0 0 0 0 0 0 0 20 :n ' congas- ' :I 28 :ID 25 6 obj -35
-93 list split 1 11 obj -1 -65 ols \$1 inlet outlet-x outlet-y mouse
settings cutsom 9 obj 361 -103 presets \$1 :x :y :d :m 15 obj 0 19
content :l /home/liam/Documents/PD/pdcon-performance/uhu.wav :x2 0.00185
:y1 0.00074 :y2 0.00185 :y -1 2 5 obj 47 83 throw~ samples 5 connect
0 0 1 0 5 connect 0 1 2 1 5 connect 0 2 2 2 5 connect 0 3 2 3 5 connect
0 4 2 4 5 connect 1 1 2 0 5 connect 4 0 5 0;
#X obj 755 55 context :H 66 :X 20 :Z 24 :a ' -- c24 stop - 29 | --
c24 stop - 29 | ' :b ' | ' :d 1.5 :e 5 :f 1 :h 1 :i 8 0 0 0 0 0 20
0 0 0 0 0 0 0 0 0 0 0 0 0 :j 7 9 0 :p -1 :P 1 :x 3 :ID 24 6 obj -35
-93 list split 1 11 obj -1 -65 ols \$1 inlet outlet-x outlet-y mouse
settings cutsom 10 obj 361 -103 presets \$1 :x :y :d :a :b 5 connect
0 0 1 0 5 connect 0 1 2 1 5 connect 0 2 2 2 5 connect 0 3 2 3 5 connect
0 4 2 4 5 connect 1 1 2 0;
#X msg 965 -64 context :H 36 :X 9 :Y 5 :Z 12 :a ' | ' :c 6 :d 0.29
:e 1 :f 1 :i 0 0 0 0 0 0 0 0 20 :n ' congas- ' :ID 24 6 obj -35 -93
list split 1 11 obj -1 -65 ols \$1 inlet outlet-x outlet-y mouse settings
cutsom 9 obj 361 -103 presets \$1 :x :y :d :m 15 obj 0 19 content :l
waves/slap.aiff :x2 0.00029 :y1 0.000116 :y2 0.00029 :y -1 2 5 obj
47 83 throw~ samples 5 connect 0 0 1 0 5 connect 0 1 2 1 5 connect
0 2 2 2 5 connect 0 3 2 3 5 connect 0 4 2 4 5 connect 1 1 2 0 5 connect
4 0 5 0;
#X obj 728 211 context :H 26 :X 11 :Y 5 :Z 12 :a ' | ' :c 6 :d 2 :e
1 :f 1 :n ' congas- ' :ID 26 6 obj -35 -93 list split 1 11 obj -1 -65
ols \$1 inlet outlet-x outlet-y mouse settings cutsom 9 obj 361 -103
presets \$1 :x :y :d :m 17 obj 18 19 content :l waves/slap.aiff :x1
0.0003 :x2 0.002 :y1 0.0008 :y2 0.002 :y -1 2 5 obj 47 83 throw~ samples
4 obj 0 -20 mover 5 connect 0 0 1 0 5 connect 0 1 2 1 5 connect 0 2
2 2 5 connect 0 3 2 3 5 connect 0 4 2 4 5 connect 1 1 2 0 5 connect
4 0 5 0;
#X obj 766 149 context :X 8 :M 1 :e 1 :f 1 :h 1 :i 0 21 30 32 34 44
46 0 :p -1 :z 0 :P 1 :x 1 2 3 4 5 6 :ID 20;
#X obj 546 482 context :X 8 :M 1 :e 1 :f 1 :h 1 :p -1 :z 0 :R 63.36
:x 1 2 3 :ID 49;
#X obj 728 565 stutter feedback4 90 88 9.12011 33.1131 0;
#X obj 270 -20 context :X 10 :M 1 :d 4 :e 1 :f 1 :i 1 51 11 17 31 0
25 45 55 29 :z 0 :x 1 2 3 4 5 6 7 9 10 :ID 29;
#X obj 424 -22 context :X 10 :M 1 :d 2 :e 1 :f 1 :i 28 11 6 24 38 45
47 51 25 0 :z 0 :x 1 2 3 4 5 6 7 8 9 :ID 27;
#X text 277 -49 master clock;
#X text 424 -48 2 second delay;
#X obj 408 136 context :X 6 :M 1 :c 13 :e 1 :f 1 :h 1 :i 2 0 16 2 0
0 :p -1 :z 0 :P 1 :x 1 2 3 4 6 :ID 28;
#X text 266 169 core bassline;
#X text 404 116 ks selector;
#X floatatom 558 -20 5 0 0 0 - - -, f 5;
#X msg 558 1 :o \$1;
#X floatatom 519 139 5 0 0 0 - - -, f 5;
#X msg 519 160 :o \$1;
#X text 290 150 cz ending;
#X msg 526 105 :c \$1;
#X floatatom 523 71 5 0 0 0 - - -, f 5;
#X text 675 285 bassline selector;
#X obj 231 -87 s startbang;
#X text 757 37 allstop;
#X text 739 123 percussion selector;
#X obj 870 431 context :H 36 :X 9 :Y 5 :Z 12 :a ' | ' :c 6 :d 0.29
:e 1 :f 1 :i 0 0 0 0 0 0 0 0 20 :n ' congas- ' :ID 19 6 obj -35 -93
list split 1 11 obj -1 -65 ols \$1 inlet outlet-x outlet-y mouse settings
cutsom 9 obj 361 -103 presets \$1 :x :y :d :m 15 obj 0 19 content :l
waves/snap.wav :x2 0.00029 :y1 0.000116 :y2 0.00029 :y -1 2 5 obj 62
110 throw~ samples 5 obj 126 44 receive~ snap 4 obj 61 81 *~ 5 connect
0 0 1 0 5 connect 0 1 2 1 5 connect 0 2 2 2 5 connect 0 3 2 3 5 connect
0 4 2 4 5 connect 1 1 2 0 5 connect 4 0 7 0 5 connect 6 0 7 1 5 connect
7 0 5 0;
#X obj 322 184 context :a ' detune- (? 5) & # = | # = | ' :c 2 :d 2
:e 2 :f 1 :i -2 0 0 -3 0 :n ' cz2 cz ' :x 1 3 4 :ID 31;
#X obj 1067 210 context :X 7 :d 2 :e 1 :f 1 :i 22 22 22 22 22 22 0
:x 1 2 3 :ID 32;
#X floatatom 1058 132 5 0 0 0 - - -, f 5;
#X obj 1067 275 context :X 6 :Z 9 :d 0.04 :e 1 :f 1 :i 0 0 0 0 0 22
:x 6 :ID 33;
#X obj 1051 359 context :X 16 :Z 12 :d 1.852 :e 1 :f 1 :i 0 0 0 0 0
0 0 0 0 0 23 0 0 0 0 0 :x 11 12 14 :ID 34;
#X obj 1160 567 throw~ out;
#X obj 661 183 timer;
#X floatatom 661 207 5 0 0 0 - - -, f 5;
#X obj 615 159 t b;
#X obj 676 153 t b;
#X obj 920 759 context :H 61 :X 17 :Y 5 :Z 21 :a ' d (~ * 100) | '
:b ' d 0 | d 0 | d 0 | d 0 | ' :d 2 :e 1 :f 6 :n ' bass ' :x 1 2 3
4 5 6 7 8 9 10 11 12 13 14 15 16 17 :ID 35 6 obj -35 -93 list split
1 11 obj -1 -65 ols \$1 inlet outlet-x outlet-y mouse settings cutsom
10 obj 361 -103 presets \$1 :x :y :d :a :b 117 obj 0 13 content :H
11 :x1 0 :x2 0.002 :y1 0.000583333 :y2 0.002 :y 1 0 0 0 0.705872 0.764694
0.794106 0.794106 0.764694 0.735283 0.705872 0.67646 0.617638 0.588226
0.558815 0.558815 0.529404 0.499992 0.44117 0.44117 0.44117 0.411758
0.411758 0.397053 0.382347 0.382347 0.382347 0.411758 0.44117 0.455875
0.470581 0.499992 0.529404 0.529404 0.529404 0.558815 0.558815 0.529404
0.499992 0.470581 0.411758 0.382347 0.382347 0.382347 0.294113 0.294113
0.264702 0.235291 0.235291 0.235291 0.254898 0.274506 0.294113 0.352936
0.382347 0.411758 0.44117 0.499992 0.558815 0.588226 0.617638 0.617638
0.617638 0.617638 0.588226 0.529404 0.499992 0.499992 0.470581 0.470581
0.44117 0.44117 0.411758 0.411758 0.382347 0.411758 0.44117 0.470581
0.529404 0.544109 0.617638 0.647049 0.647049 0.588226 0.529404 0.514698
0.470581 0.411758 0.411758 0.411758 0.411758 0.411758 0.411758 0.411758
0.44117 0.44117 0.470581 0.470581 0.44117 0.411758 0.411758 0.411758
5 connect 0 0 1 0 5 connect 0 1 2 1 5 connect 0 2 2 2 5 connect 0 3
2 3 5 connect 0 4 2 4 5 connect 1 1 2 0;
#X obj 920 690 context :M 1 :e 1 :f 1 :h 1 :p -1 :z 0 :P 1 :x 1 2 3
4 :ID 36;
#X obj 1058 154 glock~;
#X obj 1225 228 context :X 7 :Z 17 :a ' # = | ' :c 14 :d 0.75 :e 1
:f 1 :h 1 :i -27 -25 -28 -27 -25 -25 0 :j 37 0 0 :n ' glock ' :p -1
:F 42 :R 63.36 :x 1 2 3 4 5 6 :y 1 2 :ID 37;
#X obj 1019 90 receive glock-;
#X obj 3 366 catch~ high;
#X obj 1058 178 throw~ high;
#X obj 1288 163 context :M 1 :c 14 :e 1 :f 1 :h 1 :i 37 39 0 0 0 :p
-1 :z 0 :R 63.36 :x 1 2 :ID 38;
#X obj 1262 293 context :Y 5 :Z 15 :a ' # = | ' :c 14 :d 0.5 :e 1 :f
1 :h 1 :i -29 -28 0 0 0 :j 40 41 0 :n ' glock ' :p -1 :F 30 :R 63.36
:x 1 2 :y 1 2 3 4 :ID 39;
#X obj 1265 388 context :Y 5 :Z 13 :a ' # = | ' :b ' \\\; \\\; \\\;
\\\; ' :c 14 :d 0.5 :e 1 :f 1 :h 1 :i -27 -28 0 0 0 :j 39 41 0 :n '
glock ' :p -1 :F 30 :R 63.36 :x 1 2 :y 1 2 3 4 :ID 40;
#X obj 1264 464 context :Y 5 :Z 12 :a ' # = | ' :c 14 :d 0.5 :e 1 :f
1 :h 1 :i -27 -25 0 0 0 :j 40 39 0 :n ' glock ' :p -1 :F 30 :R 63.36
:x 1 2 :y 1 2 3 4 :ID 41;
#X obj 28 887 context :H 61 :X 17 :Y 6 :Z 22 :a ' u (~ * 10) & d (¬
- 1 *20) | ' :c 1 :d 2 :e 1 :f 1 :i 0 0 0 0 0 0 0 0 0 0 0 0 0 0 0 0
42 :n ' bd ' :x 1 2 5 10 11 14 :ID 42 6 obj -35 -93 list split 1 11
obj -1 -65 ols \$1 inlet outlet-x outlet-y mouse settings cutsom 9
obj 361 -103 presets \$1 :x :y :d :m 10 obj 0 27 content :x2 0.002
:y1 0.000933333 :y2 0.0019 4 obj 0 -20 mover 5 connect 0 0 1 0 5 connect
0 1 2 1 5 connect 0 2 2 2 5 connect 0 3 2 3 5 connect 0 4 2 4 5 connect
1 1 2 0;
#X obj -150 639 2f-env bd pitch 100 100 43.6516 5 901 0 2 1 1 93 100
0 12.5893 53 3 123 33 610;
#X obj 245 818 s~ pitch;
#X obj 255 579 r~ pitch;
#X obj 237 886 context :H 58 :X 17 :Y 6 :Z 22 :a ' u (~ * 10) & d (¬
- 1 *20) | ' :c 1 :d 2 :e 1 :f 1 :i 0 0 0 0 0 0 0 0 0 0 0 0 0 0 0 0
10 :n ' bd ' :x 1 5 14 :ID 43 6 obj -35 -93 list split 1 11 obj -1
-65 ols \$1 inlet outlet-x outlet-y mouse settings cutsom 9 obj 361
-103 presets \$1 :x :y :d :m 10 obj 0 27 content :x2 0.002 :y1 0.000933333
:y2 0.0019 4 obj 0 -20 mover 5 connect 0 0 1 0 5 connect 0 1 2 1 5
connect 0 2 2 2 5 connect 0 3 2 3 5 connect 0 4 2 4 5 connect 1 1 2
0;
#X obj 254 605 osc~;
#X obj 1168 665 context :H 61 :X 16 :Y 6 :Z 22 :a ' a (~ * 100) | '
:b ' a (~ * 100) | ' :c 1 :d 1.8 :e 1 :f 1 :i 0 0 0 0 19 19 0 0 0 0
0 0 0 0 0 0 :n ' bd ' :x 2 3 4 5 6 :ID 44 6 obj -35 -93 list split
1 11 obj -1 -65 ols \$1 inlet outlet-x outlet-y mouse settings cutsom
9 obj 361 -103 presets \$1 :x :y :d :m 114 obj 9 28 content :H 8 :x1
9e-05 :x2 0.00051 :y1 0.00084 :y2 0.00171 2.023 1.05748 1.03449 1.0115
0.988511 0.919545 0.919545 0.885062 0.85058 0.816097 0.781614 0.747131
0.712648 0.689659 0.66667 0.643682 0.643682 0.643682 0.574716 0.574716
0.574716 0.528739 0.482761 0.436784 0.390807 0.344829 0.298852 0.229886
0.16092 0.0919545 0.0574715 0.0229886 -7.94729e-08 -0.0229887 -0.0459774
-0.183909 -0.183909 -0.183909 -0.183909 -0.183909 -0.183909 -0.197702
-0.211496 -0.225289 -0.239082 -0.252875 -0.321841 -0.321841 -0.321841
-0.321841 -0.321841 -0.321841 -0.321841 -0.321841 -0.321841 -0.356324
-0.390807 -0.413796 -0.436784 -0.459773 -0.459773 -0.459773 -0.459773
-0.459773 -0.459773 -0.459773 -0.459773 -0.459773 -0.459773 -0.459773
-0.459773 -0.459773 -0.459773 -0.459773 -0.528739 -0.528739 -0.528739
-0.528739 -0.528739 -0.528739 -0.528739 -0.528739 -0.528739 -0.528739
-0.528739 -0.528739 -0.528739 -0.528739 -0.597705 -0.597705 -0.597705
-0.597705 -0.597705 -0.597705 -0.597705 -0.597705 -0.620693 -0.643682
-0.666671 -0.666671 4 obj 0 -20 mover 5 connect 0 0 1 0 5 connect 0
1 2 1 5 connect 0 2 2 2 5 connect 0 3 2 3 5 connect 0 4 2 4 5 connect
1 1 2 0;
#X obj 176 831 context :M 1 :a ' | ' :b ' u (!u + 10) | ' :c 1 :e 1
:f 1 :h 1 :i 42 43 0 0 0 :n ' bd ' :p -1 :z 0 :D 2 :E 1 :P 1 :x 1 2
:ID 45;
#X text 268 34 core, f 1;
#X text 293 35 bass -r, f 1;
#X text 307 35 bass -c, f 1;
#X text 319 34 alt, f 1;
#X text 331 34 second, f 1;
#X text 344 33 sample, f 1;
#X text 355 36 drum, f 1;
#X text 423 33 ks, f 1;
#X text 437 33 bass-r, f 1;
#X text 450 31 random, f 1;
#X text 462 33 percus, f 1;
#X text 474 32 twinkle, f 1;
#X text 485 32 drum, f 1;
#X obj 592 808 context :H 31 :X 9 :Y 5 :Z 19 :a ' -- c46 stop | ' :c
6 :d 8 :e 32 :f 1 :n ' congas- ' :x 2 :ID 46 6 obj -35 -93 list split
1 11 obj -1 -65 ols \$1 inlet outlet-x outlet-y mouse settings cutsom
9 obj 361 -103 presets \$1 :x :y :d :m 17 obj 0 19 content :l /home/liam/Documents/PD/context-git/waves/Amen.wav
:x2 0.008 :y1 0.0032 :y2 0.008 :y -1 2 :n 0.7 5 obj 47 83 throw~ samples
5 obj 59 125 throw~ feed 5 connect 0 0 1 0 5 connect 0 1 2 1 5 connect
0 2 2 2 5 connect 0 3 2 3 5 connect 0 4 2 4 5 connect 1 1 2 0 5 connect
4 0 5 0 5 connect 4 0 6 0;
#X text 497 33 Amen, f 1;
#X obj 617 745 context :X 7 :Z 12 :a ' \\\; \\\; \\\; \\\; \\\; \\\;
' :b ' -- c46 stop | ' :d 1 :e 2 :f 1 :k 2 :D -2 :E 1 :K 1 :x 1 6 :y
1 :ID 47;
#X obj 588 928 context :X 17 :Z 24 :a ' d (¬ * 20 - 20) | ' :c 24
:d 2 :e 1 :f 1 :i 0 0 0 0 0 0 0 0 0 0 0 0 0 0 0 0 50 :n ' snare ' :x
1 3 4 7 10 11 13 :ID 48;
#X obj 1161 426 snare cowbell 98 67 19 77;
#X obj -97 426 snare snare 17 44 31 21;
#X msg 817 835 :a 1 d (¬ * 20 - 20);
#X obj 800 929 context :X 17 :Z 23 :a ' d (¬ * 20 - 20) | ' :c 24
:d 2 :e 1 :f 1 :i 0 0 0 0 0 0 0 0 0 0 0 0 0 0 0 0 48 :n ' snare ' :x
1 4 6 7 8 9 10 13 :ID 50;
#X obj 747 872 context :M 1 :c 24 :e 1 :f 1 :h 1 :p -1 :z 0 :P 1 :x
1 2 :ID 51;
#X text 281 36 snare, f 1;
#X text 509 34 snare, f 1;
#X text 609 31 cz end, f 1;
#X text 623 30 ks start, f 1;
#X text 636 32 ksend, f 1;
#X text 659 30 bass-c, f 1;
#X text 683 31 percus, f 1;
#X text 573 -47 random consequence;
#X obj 240 419 context :X 9 :Z 12 :a ' # = | ' :c 2 :d 1 :e 1 :f 1
:i 0 0 0 0 -2 0 -6 0 0 :n ' cz ' :x 3 4 5 7 :ID 52;
#X obj 444 598 context :a ' # = | ' :d 2 :e 1 :f 1 :i 0 0 -9 -4 0 :n
' cz ' :E 1 :x 3 4 :ID 53;
#X obj 411 535 context :M 1 :e 1 :f 1 :h 1 :i 18 53 0 0 0 :p -1 :z
0 :R 63.36 :x 1 2 :ID 54;
#X msg 136 843 :o 1;
#X msg 756 833 :o 1;
#X text 696 29 twinkle, f 1;
#X text 707 29 ks, f 1;
#X obj 172 -58 netreceive 3000;
#X obj 442 -76 netreceive 3001;
#X obj 622 -76 netreceive 3002;
#X obj 181 505 hsl 128 15 0 1 0 0 empty empty empty -2 -8 0 10 -262144
-1 -1 900 1;
#X obj 188 72 metro 1000;
#X msg 188 96 send bang;
#X msg 41 1 connect 10.255.249.213 6001;
#X obj 188 120 netsend -u;
#X obj 1131 436 s bdd;
#X obj -128 614 receive bdd;
#X obj 84 166 high-pass-saw-clicks;
#X msg 83 139 send \$1;
#X obj 66 51 context :a ' # = | ' :d 4 :e 1 :f 1 :i 0 0 -6 0 0 :x 1
3 :ID 55;
#X obj 80 116 receive c55-;
#X obj 121 502 *~ 0.1;
#X obj -116 312 throw~ mix-1-l;
#X obj -114 563 throw~ mix-2-l;
#X obj 130 587 throw~ mix-3-l;
#X obj -115 867 throw~ mix-4-l;
#X obj 528 728 throw~ mix-5-l;
#X obj 120 454 throw~ mix-6-l;
#X obj 322 707 output-mixer-l;
#X obj -102 107 throw~ mix-7-l;
#X connect 2 0 25 0;
#X connect 2 0 152 0;
#X connect 4 0 21 0;
#X connect 4 0 145 0;
#X connect 6 5 43 1;
#X connect 7 5 43 2;
#X connect 10 2 43 1;
#X connect 14 0 43 1;
#X connect 15 2 43 2;
#X connect 19 3 43 2;
#X connect 23 0 144 0;
#X connect 24 0 26 1;
#X connect 24 0 33 1;
#X connect 24 0 44 1;
#X connect 26 0 149 0;
#X connect 27 0 32 1;
#X connect 27 0 147 0;
#X connect 28 0 75 0;
#X connect 30 3 43 1;
#X connect 32 0 22 0;
#X connect 33 0 149 0;
#X connect 37 0 150 0;
#X connect 39 2 42 1;
#X connect 39 2 43 1;
#X connect 42 0 41 3;
#X connect 43 0 26 0;
#X connect 43 1 33 0;
#X connect 43 2 44 0;
#X connect 44 0 149 0;
#X connect 45 5 46 1;
#X connect 45 7 60 0;
#X connect 45 9 134 0;
#X connect 52 0 53 0;
#X connect 53 0 9 1;
#X connect 54 0 55 0;
#X connect 55 0 49 3;
#X connect 58 0 57 0;
#X connect 64 2 43 6;
#X connect 65 0 67 0;
#X connect 65 1 67 1;
#X connect 65 2 67 2;
#X connect 66 0 76 0;
#X connect 68 11 138 0;
#X connect 68 13 110 0;
#X connect 70 0 71 0;
#X connect 72 0 70 0;
#X connect 73 0 70 1;
#X connect 75 0 74 0;
#X connect 76 0 80 0;
#X connect 78 0 66 0;
#X connect 79 0 32 1;
#X connect 86 0 148 0;
#X connect 86 1 87 0;
#X connect 88 0 90 0;
#X connect 89 13 43 3;
#X connect 90 0 86 2;
#X connect 108 0 106 2;
#X connect 108 5 33 0;
#X connect 110 0 69 0;
#X connect 111 0 146 0;
#X connect 112 0 113 2;
#X connect 114 0 109 13;
#X connect 114 1 113 2;
#X connect 124 2 43 2;
#X connect 126 0 92 1;
#X connect 127 0 114 2;
#X connect 130 0 45 1;
#X connect 131 0 46 2;
#X connect 132 0 9 2;
#X connect 133 0 144 1;
#X connect 134 0 135 0;
#X connect 135 0 137 0;
#X connect 136 0 137 0;
#X connect 139 0 86 0;
#X connect 141 0 137 0;
#X connect 143 0 141 0;
