#N canvas 1068 290 450 300 10;
#X obj 112 133 rand-filter~;
#X obj 109 53 source-amen~;
#X obj 113 186 dac~;
#X obj 86 30 bng 15 250 50 0 empty empty empty 17 7 0 10 -262144 -1
-1;
#X obj 141 98 nbx 5 14 -1e+37 1e+37 0 1 empty empty lfo_rate 0 -8 0
10 -262144 -1 -1 124 256;
#X obj 211 98 nbx 5 14 -1e+37 1e+37 0 1 empty empty filt._span 0 -8
0 10 -262144 -1 -1 828 256;
#X obj 281 98 nbx 5 14 -1e+37 1e+37 0 1 empty empty filt._offset 0
-8 0 10 -262144 -1 -1 325 256;
#X connect 0 0 2 0;
#X connect 0 0 2 1;
#X connect 1 0 0 0;
#X connect 3 0 1 0;
#X connect 4 0 0 1;
#X connect 5 0 0 2;
#X connect 6 0 0 3;
