#N canvas 1220 418 450 300 10;
#X obj 196 172 readsf~;
#X msg 164 104 open amen.wav;
#X msg 215 132 1;
#X obj 164 42 inlet;
#X obj 164 68 b;
#X obj 181 222 outlet~;
#X connect 0 0 5 0;
#X connect 0 1 1 0;
#X connect 0 1 2 0;
#X connect 1 0 0 0;
#X connect 2 0 0 0;
#X connect 3 0 4 0;
#X connect 4 0 1 0;
#X connect 4 0 2 0;
